# Blender v2.79 (sub 0) OBJ File: 'ventoraptorskull.blend'
# www.blender.org
mtllib ventoraptorskull.mtl
o Base
v 0.144000 -0.082141 0.019973
v 0.120000 -0.071001 0.065907
v -0.120000 -0.071001 0.065907
v -0.144000 -0.082141 0.019973
v 0.144000 0.188491 -0.078529
v 0.120000 0.173315 0.104761
v -0.120000 0.173315 0.104761
v -0.144000 0.188491 -0.078529
v -0.084000 -0.038590 0.179673
v -0.084000 0.142105 0.179766
v 0.084000 -0.038590 0.179673
v 0.084000 0.142105 0.179766
v -0.084000 0.045235 0.295373
v 0.084000 0.045235 0.295373
v -0.050400 0.030071 0.483018
v -0.050400 0.105145 0.471885
v 0.050400 0.030071 0.483018
v 0.050400 0.105145 0.471885
v -0.000000 -0.071001 0.065907
v 0.000000 -0.082141 0.019973
v -0.000000 0.173315 0.104761
v 0.000000 0.188491 -0.078529
v -0.000000 0.142105 0.179766
v -0.000000 -0.038590 0.179673
v -0.000000 0.045235 0.295373
v -0.000000 0.030071 0.483018
v -0.000000 0.105145 0.471885
v -0.000000 0.291432 0.285956
v -0.000000 0.448264 0.080706
v 0.000000 0.405930 -0.179394
v -0.084000 -0.025671 0.282870
v 0.084000 -0.025671 0.282870
v -0.084000 -0.040835 0.470515
v 0.084000 -0.040835 0.470515
vt 0.265122 0.640351
vt 0.265123 0.830071
vt 0.219083 0.648256
vt 0.219083 0.648607
vt 0.188146 0.806918
vt 0.265122 0.830422
vt 0.146093 0.781165
vt 0.188146 0.806567
vt 0.146093 0.780814
vt 0.146988 0.646434
vt 0.108677 0.701373
vt 0.146988 0.646784
vt 0.108677 0.701723
vt 0.022160 0.759882
vt 0.022160 0.759532
vt 0.017112 0.583206
vt 0.017112 0.513866
vt 0.049799 0.525423
vt 0.049799 0.583206
vt 0.049799 0.640989
vt 0.242085 0.844155
vt 0.242085 0.919657
vt 0.179825 0.856739
vt 0.242085 0.995159
vt 0.179824 0.982576
vt 0.241643 0.993945
vt 0.241643 0.918886
vt 0.361737 0.918886
vt 0.241643 0.843827
vt 0.361737 0.843827
vt 0.179825 0.919657
vt 0.145748 0.875615
vt 0.145748 0.963700
vt 0.100652 0.623654
vt 0.100652 0.542758
vt 0.143600 0.624142
vt 0.143600 0.583125
vt 0.217141 0.583126
vt 0.143601 0.542108
vt 0.217141 0.542109
vt 0.145748 0.919657
vt 0.046180 0.919657
vt 0.046180 0.963700
vt 0.046180 0.875614
vt 0.014345 0.919657
vt 0.014345 0.963700
vt 0.387121 0.166984
vt 0.464099 0.327140
vt 0.277129 0.205549
vt 0.475097 0.162507
vt 0.489477 0.247559
vt 0.143271 0.542758
vt 0.143271 0.583206
vt 0.100652 0.583206
vt 0.004241 0.497949
vt 0.004241 0.455936
vt 0.113608 0.487650
vt 0.113608 0.487650
vt 0.113608 0.445637
vt 0.004241 0.455936
vt 0.265122 0.640702
vt 0.009828 0.712322
vt 0.009828 0.711973
vt 0.017112 0.652546
vt 0.361737 0.993945
vt 0.217140 0.624144
vt 0.014345 0.875614
vt 0.319664 0.164317
vt 0.143271 0.623654
vt 0.113608 0.445637
vt 0.004241 0.497949
vn 0.8905 0.1556 0.4275
vn -0.9915 -0.0204 0.1281
vn -0.9099 -0.0651 0.4096
vn 0.9099 -0.0651 0.4096
vn 1.0000 0.0000 0.0000
vn -1.0000 -0.0000 -0.0000
vn -0.9785 0.1582 0.1326
vn 0.9785 0.1582 0.1326
vn -0.0000 -0.9718 0.2357
vn -0.0000 0.9966 0.0825
vn 0.0000 -0.3420 -0.9397
vn -0.0000 0.9233 0.3842
vn -0.0000 -0.9617 0.2740
vn 0.0000 -0.9968 -0.0805
vn -0.0000 0.9921 0.1255
vn 0.0000 0.1467 0.9892
vn -0.0000 -0.8098 0.5867
vn 0.8994 0.3922 0.1928
vn 0.9915 -0.0204 0.1281
vn -0.8905 0.1556 0.4275
vn -0.9534 -0.0002 0.3017
vn 0.9534 -0.0002 0.3017
vn -0.9836 0.0264 0.1783
vn 0.9836 0.0264 0.1783
vn -0.8994 0.3922 0.1928
usemtl None
s off
f 1/1/1 5/2/1 2/3/1
f 3/4/2 7/5/2 8/6/2
f 7/5/3 3/4/3 10/7/3
f 2/3/4 6/8/4 12/9/4
f 11/10/5 12/9/5 14/11/5
f 10/7/6 9/12/6 13/13/6
f 10/7/7 13/13/7 16/14/7
f 14/11/8 12/9/8 18/15/8
f 20/16/9 1/17/9 2/18/9
f 19/19/9 3/20/9 20/16/9
f 5/21/10 22/22/10 6/23/10
f 22/22/10 8/24/10 7/25/10
f 1/26/11 20/27/11 22/28/11
f 20/27/11 4/29/11 8/30/11
f 6/23/12 21/31/12 12/32/12
f 21/31/12 7/25/12 10/33/12
f 3/20/13 19/19/13 9/34/13
f 19/19/13 2/18/13 11/35/13
f 13/36/14 25/37/14 26/38/14
f 25/37/14 14/39/14 17/40/14
f 12/32/15 23/41/15 27/42/15
f 23/41/15 10/33/15 16/43/15
f 18/44/16 27/42/16 26/45/16
f 27/42/16 16/43/16 15/46/16
f 21/47/5 29/48/5 28/49/5
f 22/50/5 30/51/5 29/48/5
f 11/35/17 14/52/17 25/53/17
f 9/34/17 24/54/17 25/53/17
f 17/55/18 34/56/18 14/57/18
f 13/58/6 31/59/6 33/60/6
f 5/2/19 6/8/19 2/3/19
f 4/61/20 3/4/20 8/6/20
f 3/4/21 9/12/21 10/7/21
f 11/10/22 2/3/22 12/9/22
f 13/13/23 15/62/23 16/14/23
f 17/63/24 14/11/24 18/15/24
f 19/19/9 20/16/9 2/18/9
f 3/20/9 4/64/9 20/16/9
f 22/22/10 21/31/10 6/23/10
f 21/31/10 22/22/10 7/25/10
f 5/65/11 1/26/11 22/28/11
f 22/28/11 20/27/11 8/30/11
f 21/31/12 23/41/12 12/32/12
f 23/41/12 21/31/12 10/33/12
f 19/19/13 24/54/13 9/34/13
f 24/54/13 19/19/13 11/35/13
f 15/66/14 13/36/14 26/38/14
f 26/38/14 25/37/14 17/40/14
f 18/44/15 12/32/15 27/42/15
f 27/42/15 23/41/15 16/43/15
f 17/67/16 18/44/16 26/45/16
f 26/45/16 27/42/16 15/46/16
f 23/68/5 21/47/5 28/49/5
f 21/47/5 22/50/5 29/48/5
f 24/54/17 11/35/17 25/53/17
f 13/69/17 9/34/17 25/53/17
f 34/56/5 32/70/5 14/57/5
f 15/71/25 13/58/25 33/60/25
