# Blender v2.80 (sub 75) OBJ File: ''
# www.blender.org
mtllib bansheeeye.mtl
o Base
v -0.150208 -0.061850 -0.061850
v -0.163461 -0.067308 -0.000000
v -0.177884 0.000000 0.000000
v -0.163461 0.000000 -0.067308
v -0.125000 0.000000 -0.125000
v -0.114865 -0.056393 -0.114865
v -0.096731 -0.096731 -0.096731
v -0.114865 -0.114865 -0.056393
v -0.125000 -0.125000 -0.000000
v 0.061850 -0.150208 -0.061850
v 0.067308 -0.163461 -0.000000
v 0.000000 -0.177884 -0.000000
v 0.000000 -0.163461 -0.067308
v 0.000000 -0.125000 -0.125000
v 0.056393 -0.114865 -0.114865
v 0.096731 -0.096731 -0.096731
v 0.114865 -0.114865 -0.056393
v 0.125000 -0.125000 -0.000000
v 0.150208 0.061850 -0.061850
v 0.163461 0.067308 0.000000
v 0.177884 0.000000 0.000000
v 0.163461 0.000000 -0.067308
v 0.125000 0.000000 -0.125000
v 0.114865 0.056393 -0.114865
v 0.096731 0.096731 -0.096731
v 0.114865 0.114865 -0.056393
v 0.125000 0.125000 0.000000
v -0.061850 0.150208 -0.061850
v -0.067308 0.163461 0.000000
v 0.000000 0.177884 0.000000
v 0.000000 0.163461 -0.067308
v 0.000000 0.125000 -0.125000
v -0.056393 0.114865 -0.114865
v -0.096731 0.096731 -0.096731
v -0.114865 0.114865 -0.056393
v -0.125000 0.125000 0.000000
v 0.061850 0.061850 0.150208
v 0.000000 0.067308 0.163461
v 0.000000 -0.000000 0.177884
v 0.067308 -0.000000 0.163461
v 0.125000 -0.000000 0.125000
v 0.114865 0.056393 0.114865
v 0.096731 0.096731 0.096731
v 0.056393 0.114865 0.114865
v 0.000000 0.125000 0.125000
v -0.061850 0.061850 -0.150208
v 0.000000 0.067308 -0.163461
v 0.000000 0.000000 -0.177884
v -0.067308 0.000000 -0.163461
v -0.114865 0.056393 -0.114865
v 0.061850 0.061850 -0.150208
v 0.067308 0.000000 -0.163461
v 0.056393 0.114865 -0.114865
v -0.061850 0.061850 0.150208
v -0.114865 0.056393 0.114865
v -0.125000 -0.000000 0.125000
v -0.067308 -0.000000 0.163461
v -0.056393 0.114865 0.114865
v -0.096731 0.096731 0.096731
v 0.061850 0.150208 -0.061850
v 0.067308 0.163461 0.000000
v -0.061850 -0.150208 -0.061850
v -0.067308 -0.163461 -0.000000
v -0.056393 -0.114865 -0.114865
v -0.061850 -0.061850 0.150208
v -0.114865 -0.056393 0.114865
v -0.096731 -0.096731 0.096731
v -0.056393 -0.114865 0.114865
v 0.000000 -0.125000 0.125000
v 0.000000 -0.067308 0.163461
v 0.061850 -0.061850 -0.150208
v 0.114865 -0.056393 -0.114865
v 0.000000 -0.067308 -0.163461
v -0.061850 -0.061850 -0.150208
v 0.061850 -0.061850 0.150208
v 0.056393 -0.114865 0.114865
v 0.096731 -0.096731 0.096731
v 0.114865 -0.056393 0.114865
v 0.150208 -0.061850 -0.061850
v 0.163461 -0.067308 -0.000000
v -0.150208 0.061850 -0.061850
v -0.163461 0.067308 0.000000
v -0.150208 0.061850 0.061850
v -0.114865 0.114865 0.056393
v -0.163461 -0.000000 0.067308
v 0.150208 -0.061850 0.061850
v 0.114865 -0.114865 0.056393
v 0.163461 -0.000000 0.067308
v -0.061850 -0.150208 0.061850
v -0.114865 -0.114865 0.056393
v 0.000000 -0.163461 0.067308
v 0.061850 0.150208 0.061850
v 0.114865 0.114865 0.056393
v 0.000000 0.163461 0.067308
v -0.061850 0.150208 0.061850
v 0.150208 0.061850 0.061850
v 0.061850 -0.150208 0.061850
v -0.150208 -0.061850 0.061850
vt 0.857464 0.375822
vt 0.864670 0.305502
vt 0.949579 0.304687
vt 0.926639 0.405334
vt 0.869940 0.487202
vt 0.822750 0.440909
vt 0.785556 0.404422
vt 0.793917 0.358584
vt 0.796089 0.306160
vt 0.636024 0.358628
vt 0.633354 0.307722
vt 0.686462 0.307213
vt 0.686972 0.360321
vt 0.687514 0.416839
vt 0.635091 0.414667
vt 0.589253 0.406307
vt 0.580013 0.360637
vt 0.576836 0.308265
vt 0.221457 0.867861
vt 0.291679 0.875963
vt 0.291421 0.957903
vt 0.192209 0.933956
vt 0.111986 0.876871
vt 0.156817 0.832321
vt 0.193775 0.795595
vt 0.239503 0.804539
vt 0.291894 0.807379
vt 0.241470 0.646659
vt 0.292406 0.644637
vt 0.292239 0.697748
vt 0.239129 0.697581
vt 0.182608 0.697403
vt 0.185447 0.645011
vt 0.194392 0.599283
vt 0.240175 0.590627
vt 0.292584 0.588117
vt 0.462353 0.768530
vt 0.470455 0.698308
vt 0.552395 0.698565
vt 0.528448 0.797778
vt 0.471362 0.878000
vt 0.426812 0.833169
vt 0.390086 0.796212
vt 0.399031 0.750484
vt 0.401870 0.698092
vt 0.122125 0.626965
vt 0.114024 0.697187
vt 0.032084 0.696930
vt 0.056031 0.597717
vt 0.113117 0.517495
vt 0.157666 0.562326
vt 0.121684 0.767459
vt 0.055407 0.796291
vt 0.185118 0.749812
vt 0.462794 0.628036
vt 0.427661 0.563174
vt 0.472492 0.518625
vt 0.529071 0.599204
vt 0.399360 0.645683
vt 0.390703 0.599900
vt 0.241150 0.748516
vt 0.292072 0.750858
vt 0.737878 0.357651
vt 0.739570 0.306703
vt 0.739887 0.413662
vt 0.755071 0.136211
vt 0.820158 0.170925
vt 0.783672 0.208119
vt 0.737834 0.199758
vt 0.685410 0.197586
vt 0.684751 0.129004
vt 0.683936 0.044095
vt 0.784584 0.067035
vt 0.866451 0.123734
vt 0.617853 0.478214
vt 0.552766 0.443500
vt 0.688173 0.485421
vt 0.688988 0.570330
vt 0.588340 0.547390
vt 0.506473 0.490691
vt 0.758341 0.476866
vt 0.789176 0.545462
vt 0.614583 0.137559
vt 0.633037 0.200764
vt 0.587368 0.210003
vt 0.550174 0.173516
vt 0.502984 0.127223
vt 0.583748 0.068963
vt 0.516809 0.379091
vt 0.508254 0.308923
vt 0.448213 0.409926
vt 0.423345 0.309738
vt 0.222528 0.527192
vt 0.292799 0.519532
vt 0.193695 0.460916
vt 0.293057 0.437592
vt 0.363021 0.527634
vt 0.344976 0.590956
vt 0.392269 0.461539
vt 0.515460 0.238604
vt 0.579007 0.255841
vt 0.446285 0.209091
vt 0.736900 0.255797
vt 0.792911 0.253788
vt 0.685952 0.254104
vt 0.343008 0.748837
vt 0.344303 0.804869
vt 0.345349 0.697915
vt 0.343328 0.646979
vt 0.361950 0.868303
vt 0.390783 0.934580
vt 0.635046 0.256775
vt 0.856115 0.235334
vt 0.924711 0.204499
vn -0.9534 -0.2133 -0.2133
vn -0.8042 -0.2313 -0.5475
vn -0.6780 -0.5198 -0.5198
vn -0.8042 -0.5475 -0.2313
vn 0.2133 -0.9534 -0.2133
vn 0.2313 -0.8042 -0.5475
vn 0.5198 -0.6780 -0.5198
vn 0.5475 -0.8042 -0.2313
vn 0.9534 0.2133 -0.2133
vn 0.8042 0.2313 -0.5475
vn 0.6780 0.5198 -0.5198
vn 0.8042 0.5475 -0.2313
vn -0.2133 0.9534 -0.2133
vn -0.2313 0.8042 -0.5475
vn -0.5198 0.6780 -0.5197
vn -0.5475 0.8042 -0.2313
vn 0.2133 0.2133 0.9534
vn 0.5475 0.2313 0.8042
vn 0.5198 0.5197 0.6780
vn 0.2313 0.5475 0.8042
vn -0.2133 0.2133 -0.9534
vn -0.5475 0.2313 -0.8042
vn -0.5198 0.5198 -0.6780
vn -0.2313 0.5475 -0.8042
vn 0.5475 0.2313 -0.8042
vn 0.2133 0.2133 -0.9534
vn 0.2313 0.5475 -0.8042
vn 0.5198 0.5198 -0.6780
vn -0.5475 0.2313 0.8042
vn -0.2133 0.2133 0.9534
vn -0.2313 0.5475 0.8042
vn -0.5198 0.5197 0.6780
vn 0.5475 0.8042 -0.2313
vn 0.5198 0.6780 -0.5197
vn 0.2313 0.8042 -0.5475
vn 0.2133 0.9534 -0.2133
vn -0.5475 -0.8042 -0.2313
vn -0.5198 -0.6780 -0.5198
vn -0.2313 -0.8042 -0.5475
vn -0.2133 -0.9534 -0.2133
vn -0.5198 -0.5198 0.6780
vn -0.2313 -0.5475 0.8042
vn -0.2133 -0.2133 0.9534
vn -0.5475 -0.2313 0.8042
vn 0.5198 -0.5197 -0.6780
vn 0.2313 -0.5475 -0.8042
vn 0.2133 -0.2133 -0.9534
vn 0.5475 -0.2313 -0.8042
vn -0.2313 -0.5475 -0.8042
vn -0.5198 -0.5197 -0.6780
vn -0.5475 -0.2313 -0.8042
vn -0.2133 -0.2133 -0.9534
vn 0.2313 -0.5475 0.8042
vn 0.5198 -0.5198 0.6780
vn 0.5475 -0.2313 0.8042
vn 0.2133 -0.2133 0.9534
vn 0.8042 -0.5475 -0.2313
vn 0.6780 -0.5198 -0.5198
vn 0.8042 -0.2313 -0.5475
vn 0.9534 -0.2133 -0.2133
vn -0.8042 0.5475 -0.2313
vn -0.6780 0.5198 -0.5198
vn -0.8042 0.2313 -0.5475
vn -0.9534 0.2133 -0.2133
vn -0.6780 0.5198 0.5198
vn -0.8042 0.5475 0.2313
vn -0.9534 0.2133 0.2133
vn -0.8042 0.2313 0.5475
vn 0.6780 -0.5198 0.5198
vn 0.8042 -0.5475 0.2313
vn 0.9534 -0.2133 0.2133
vn 0.8042 -0.2313 0.5475
vn -0.5198 -0.6780 0.5197
vn -0.5475 -0.8042 0.2313
vn -0.2133 -0.9534 0.2133
vn -0.2313 -0.8042 0.5475
vn 0.5198 0.6780 0.5198
vn 0.5475 0.8042 0.2313
vn 0.2133 0.9534 0.2133
vn 0.2313 0.8042 0.5475
vn -0.2313 0.8042 0.5475
vn -0.2133 0.9534 0.2133
vn -0.5475 0.8042 0.2313
vn -0.5198 0.6780 0.5198
vn 0.8042 0.2313 0.5475
vn 0.9534 0.2133 0.2133
vn 0.8042 0.5475 0.2313
vn 0.6780 0.5198 0.5198
vn 0.2313 -0.8042 0.5475
vn 0.2133 -0.9534 0.2133
vn 0.5475 -0.8042 0.2313
vn 0.5198 -0.6780 0.5197
vn -0.8042 -0.2313 0.5475
vn -0.9534 -0.2133 0.2133
vn -0.8042 -0.5475 0.2313
vn -0.6780 -0.5198 0.5198
usemtl banshee_eye
s 1
f 1/1/1 2/2/1 3/3/1 4/4/1
f 1/1/2 4/4/2 5/5/2 6/6/2
f 1/1/3 6/6/3 7/7/3 8/8/3
f 1/1/4 8/8/4 9/9/4 2/2/4
f 10/10/5 11/11/5 12/12/5 13/13/5
f 10/10/6 13/13/6 14/14/6 15/15/6
f 10/10/7 15/15/7 16/16/7 17/17/7
f 10/10/8 17/17/8 18/18/8 11/11/8
f 19/19/9 20/20/9 21/21/9 22/22/9
f 19/19/10 22/22/10 23/23/10 24/24/10
f 19/19/11 24/24/11 25/25/11 26/26/11
f 19/19/12 26/26/12 27/27/12 20/20/12
f 28/28/13 29/29/13 30/30/13 31/31/13
f 28/28/14 31/31/14 32/32/14 33/33/14
f 28/28/15 33/33/15 34/34/15 35/35/15
f 28/28/16 35/35/16 36/36/16 29/29/16
f 37/37/17 38/38/17 39/39/17 40/40/17
f 37/37/18 40/40/18 41/41/18 42/42/18
f 37/37/19 42/42/19 43/43/19 44/44/19
f 37/37/20 44/44/20 45/45/20 38/38/20
f 46/46/21 47/47/21 48/48/21 49/49/21
f 46/46/22 49/49/22 5/50/22 50/51/22
f 46/46/23 50/51/23 34/34/23 33/33/23
f 46/46/24 33/33/24 32/32/24 47/47/24
f 51/52/25 24/24/25 23/23/25 52/53/25
f 51/52/26 52/53/26 48/48/26 47/47/26
f 51/52/27 47/47/27 32/32/27 53/54/27
f 51/52/28 53/54/28 25/25/28 24/24/28
f 54/55/29 55/56/29 56/57/29 57/58/29
f 54/55/30 57/58/30 39/39/30 38/38/30
f 54/55/31 38/38/31 45/45/31 58/59/31
f 54/55/32 58/59/32 59/60/32 55/56/32
f 60/61/33 61/62/33 27/27/33 26/26/33
f 60/61/34 26/26/34 25/25/34 53/54/34
f 60/61/35 53/54/35 32/32/35 31/31/35
f 60/61/36 31/31/36 30/30/36 61/62/36
f 62/63/37 63/64/37 9/9/37 8/8/37
f 62/63/38 8/8/38 7/7/38 64/65/38
f 62/63/39 64/65/39 14/14/39 13/13/39
f 62/63/40 13/13/40 12/12/40 63/64/40
f 65/66/41 66/67/41 67/68/41 68/69/41
f 65/66/42 68/69/42 69/70/42 70/71/42
f 65/66/43 70/71/43 39/72/43 57/73/43
f 65/66/44 57/73/44 56/74/44 66/67/44
f 71/75/45 72/76/45 16/16/45 15/15/45
f 71/75/46 15/15/46 14/14/46 73/77/46
f 71/75/47 73/77/47 48/78/47 52/79/47
f 71/75/48 52/79/48 23/80/48 72/76/48
f 74/81/49 73/77/49 14/14/49 64/65/49
f 74/81/50 64/65/50 7/7/50 6/6/50
f 74/81/51 6/6/51 5/5/51 49/82/51
f 74/81/52 49/82/52 48/78/52 73/77/52
f 75/83/53 70/71/53 69/70/53 76/84/53
f 75/83/54 76/84/54 77/85/54 78/86/54
f 75/83/55 78/86/55 41/87/55 40/88/55
f 75/83/56 40/88/56 39/72/56 70/71/56
f 79/89/57 80/90/57 18/18/57 17/17/57
f 79/89/58 17/17/58 16/16/58 72/76/58
f 79/89/59 72/76/59 23/80/59 22/91/59
f 79/89/60 22/91/60 21/92/60 80/90/60
f 81/93/61 82/94/61 36/36/61 35/35/61
f 81/93/62 35/35/62 34/34/62 50/51/62
f 81/93/63 50/51/63 5/50/63 4/95/63
f 81/93/64 4/95/64 3/96/64 82/94/64
f 83/97/65 55/56/65 59/60/65 84/98/65
f 83/97/66 84/98/66 36/36/66 82/94/66
f 83/97/67 82/94/67 3/96/67 85/99/67
f 83/97/68 85/99/68 56/57/68 55/56/68
f 86/100/69 78/86/69 77/85/69 87/101/69
f 86/100/70 87/101/70 18/18/70 80/90/70
f 86/100/71 80/90/71 21/92/71 88/102/71
f 86/100/72 88/102/72 41/87/72 78/86/72
f 89/103/73 68/69/73 67/68/73 90/104/73
f 89/103/74 90/104/74 9/9/74 63/64/74
f 89/103/75 63/64/75 12/12/75 91/105/75
f 89/103/76 91/105/76 69/70/76 68/69/76
f 92/106/77 44/44/77 43/43/77 93/107/77
f 92/106/78 93/107/78 27/27/78 61/62/78
f 92/106/79 61/62/79 30/30/79 94/108/79
f 92/106/80 94/108/80 45/45/80 44/44/80
f 95/109/81 58/59/81 45/45/81 94/108/81
f 95/109/82 94/108/82 30/30/82 29/29/82
f 95/109/83 29/29/83 36/36/83 84/98/83
f 95/109/84 84/98/84 59/60/84 58/59/84
f 96/110/85 42/42/85 41/41/85 88/111/85
f 96/110/86 88/111/86 21/21/86 20/20/86
f 96/110/87 20/20/87 27/27/87 93/107/87
f 96/110/88 93/107/88 43/43/88 42/42/88
f 97/112/89 76/84/89 69/70/89 91/105/89
f 97/112/90 91/105/90 12/12/90 11/11/90
f 97/112/91 11/11/91 18/18/91 87/101/91
f 97/112/92 87/101/92 77/85/92 76/84/92
f 98/113/93 66/67/93 56/74/93 85/114/93
f 98/113/94 85/114/94 3/3/94 2/2/94
f 98/113/95 2/2/95 9/9/95 90/104/95
f 98/113/96 90/104/96 67/68/96 66/67/96
