# Blender v2.80 (sub 75) OBJ File: 'belpharm.blend'
# www.blender.org
mtllib belpharm.mtl
o belpharm
v 0.010139 0.247390 0.078176
v -0.005661 0.288196 0.067958
v -0.029758 0.284160 0.080235
v -0.027982 0.239861 0.097795
v -0.061562 0.221264 -0.001883
v -0.052247 0.290057 0.019050
v -0.028297 0.293190 0.013451
v -0.023854 0.229799 -0.010656
v -0.053270 0.283736 0.065798
v -0.064452 0.228307 0.074033
v -0.004639 0.294518 0.021210
v 0.013029 0.240347 0.002260
v 0.036522 0.073699 0.043567
v 0.024198 0.080864 0.080980
v 0.031516 -0.000901 0.071059
v 0.043308 0.011445 0.035308
v -0.020289 0.097808 0.104381
v -0.062853 0.110068 0.077283
v -0.058220 -0.010466 0.066372
v -0.013735 -0.013117 0.092940
v -0.072293 0.110204 0.038946
v -0.059489 0.101869 -0.011091
v -0.056879 0.015552 -0.018416
v -0.068863 -0.000511 0.029448
v -0.015482 0.086096 -0.021867
v 0.027562 0.072665 -0.007394
v 0.032856 0.025118 -0.013728
v -0.011820 0.024052 -0.028184
v 0.020702 0.246757 0.046158
v -0.072537 0.222903 0.040980
v -0.029036 0.295207 0.047602
v -0.058782 0.285888 0.045493
v 0.000728 0.291463 0.048193
v -0.037319 -0.041272 0.024974
v -0.031998 -0.046250 0.043436
v -0.009755 -0.047575 0.056720
v 0.013541 -0.028458 0.003385
v -0.008798 -0.028990 -0.003843
v 0.012870 -0.041467 0.045779
v -0.031327 -0.033240 0.001042
v -0.009277 -0.051432 0.024555
v 0.018766 -0.035294 0.027904
vt 0.720256 0.112009
vt 0.709199 0.044073
vt 0.541014 0.040954
vt 0.499808 0.110698
vt 0.632304 0.719060
vt 0.545382 0.660021
vt 0.462664 0.665056
vt 0.473897 0.723201
vt 0.385261 0.019652
vt 0.280660 0.099228
vt 0.377305 0.663525
vt 0.319301 0.716124
vt 0.804443 0.355456
vt 0.624430 0.320092
vt 0.508163 0.398515
vt 0.640538 0.439235
vt 0.413597 0.278767
vt 0.183595 0.248830
vt 0.203576 0.375363
vt 0.366066 0.377622
vt 0.951734 0.830991
vt 0.708644 0.855000
vt 0.744597 0.968564
vt 1.000862 0.980807
vt 0.483403 0.884832
vt 0.244999 0.907221
vt 0.234294 0.970271
vt 0.487337 0.966258
vt -0.010352 0.238715
vt 0.018389 0.398001
vt 0.007272 0.899379
vt -0.010352 0.980807
vt 0.141332 0.683427
vt 0.117980 0.079956
vt 0.802642 0.686047
vt 0.892490 0.108056
vt 0.454403 0.625871
vt 0.609067 0.630734
vt 0.303132 0.635522
vt 0.319179 0.600753
vt 0.448743 0.574362
vt 0.584036 0.596971
vt 0.820591 0.033424
vt 0.288988 -0.002688
vt 0.230638 0.426774
vt 0.275426 0.412574
vt 0.345679 0.410322
vt 0.559580 0.535842
vt 0.407814 0.470554
vt 0.306985 0.473392
vt 0.257057 0.554186
vt 0.405932 0.421754
vt 0.215289 0.458458
vt 0.326681 0.436163
vt 0.429135 0.440032
vt -0.010352 0.501333
vn 0.3729 0.3566 0.8566
vn -0.2720 0.3193 -0.9078
vn -0.5551 0.2570 0.7911
vn 0.2335 0.3728 -0.8980
vn 0.9473 0.0529 0.3160
vn -0.5350 -0.1068 0.8381
vn -0.9692 -0.0085 -0.2462
vn -0.9687 0.0021 -0.2481
vn -0.9692 -0.0087 -0.2461
vn 0.3274 0.1347 -0.9352
vn -0.2178 0.0802 -0.9727
vn 0.4467 -0.0668 0.8922
vn -0.9665 -0.0558 0.2504
vn 0.9762 0.1304 -0.1730
vn 0.9794 0.0937 -0.1791
vn -0.9710 -0.0065 0.2388
vn 0.4664 0.0597 0.8825
vn -0.2266 0.0664 -0.9717
vn 0.3257 0.0870 -0.9414
vn -0.9687 0.0023 -0.2482
vn -0.5410 0.0125 0.8409
vn 0.9492 0.0837 0.3035
vn -0.2254 0.9742 0.0075
vn 0.0431 0.9990 0.0137
vn 0.0533 0.9614 0.2699
vn -0.2502 0.9339 0.2555
vn -0.9495 0.2111 -0.2322
vn 0.9048 0.3836 -0.1846
vn 0.8681 0.3923 0.3041
vn -0.9509 0.2075 0.2297
vn -0.7861 -0.6150 0.0608
vn -0.4034 -0.6847 0.6070
vn 0.2924 -0.3850 -0.8753
vn 0.4720 -0.6122 0.6343
vn -0.1525 -0.8457 -0.5114
vn 0.3647 -0.8005 -0.4756
vn 0.4031 -0.9151 0.0090
vn -0.2226 -0.9749 -0.0003
vn -0.1160 -0.4197 -0.9002
vn -0.7537 -0.5426 -0.3708
vn 0.8706 -0.4765 0.1226
vn 0.8639 -0.4065 -0.2975
usemtl belpharm
s 1
f 1/1/1 2/2/1 3/3/1 4/4/1
f 5/5/2 6/6/2 7/7/2 8/8/2
f 4/4/3 3/3/3 9/9/3 10/10/3
f 8/8/4 7/7/4 11/11/4 12/12/4
f 13/13/5 14/14/5 15/15/5 16/16/5
f 17/17/6 18/18/6 19/19/6 20/20/6
f 21/21/7 22/22/8 23/23/9 24/24/9
f 25/25/10 26/26/10 27/27/10 28/28/10
f 22/22/11 25/25/11 28/28/11 23/23/11
f 14/14/12 17/17/12 20/20/12 15/15/12
f 18/18/13 21/29/13 24/30/13 19/19/13
f 26/26/14 13/31/14 16/32/14 27/27/14
f 12/12/15 29/33/15 13/31/15 26/26/15
f 10/10/16 30/34/16 21/29/16 18/18/16
f 1/1/17 4/4/17 17/17/17 14/14/17
f 5/5/18 8/8/18 25/25/18 22/22/18
f 8/8/19 12/12/19 26/26/19 25/25/19
f 30/35/20 5/5/20 22/22/8 21/21/7
f 4/4/21 10/10/21 18/18/21 17/17/21
f 29/36/22 1/1/22 14/14/22 13/13/22
f 31/37/23 7/7/23 6/6/23 32/38/23
f 33/39/24 11/11/24 7/7/24 31/37/24
f 2/40/25 33/39/25 31/37/25 3/41/25
f 3/41/26 31/37/26 32/38/26 9/42/26
f 30/35/27 32/38/27 6/6/27 5/5/27
f 12/12/28 11/11/28 33/39/28 29/33/28
f 29/36/29 33/43/29 2/2/29 1/1/29
f 10/10/30 9/9/30 32/44/30 30/34/30
f 24/30/31 34/45/31 35/46/31 19/19/31
f 19/19/32 35/46/32 36/47/32 20/20/32
f 27/48/33 37/49/33 38/50/33 28/51/33
f 20/20/34 36/47/34 39/52/34 15/15/34
f 34/45/35 40/53/35 38/50/35 41/54/35
f 38/50/36 37/49/36 42/55/36 41/54/36
f 39/52/37 36/47/37 41/54/37 42/55/37
f 36/47/38 35/46/38 34/45/38 41/54/38
f 28/51/39 38/50/39 40/53/39 23/56/39
f 23/56/40 40/53/40 34/45/40 24/30/40
f 15/15/41 39/52/41 42/55/41 16/16/41
f 16/16/42 42/55/42 37/49/42 27/48/42
