# Blender v2.80 (sub 75) OBJ File: ''
# www.blender.org
mtllib lacedonhead.mtl
o lacedonhead
v -0.112066 -0.152864 -0.442873
v -0.132933 0.137588 -0.399032
v -0.142788 0.121359 -0.685391
v 0.010447 0.134428 -0.403787
v 0.153827 0.131268 -0.408543
v 0.143972 0.115040 -0.694901
v 0.117342 -0.157920 -0.450481
v 0.002638 -0.155392 -0.446677
v -0.119950 -0.165847 -0.671959
v -0.005246 -0.168374 -0.675763
v 0.000592 0.118200 -0.690146
v 0.109458 -0.170902 -0.679567
v 0.007058 0.326677 -0.633703
v 0.016913 0.342903 -0.347346
vt 0.111357 0.664716
vt 0.488939 0.721596
vt 0.488936 0.447007
vt 0.719521 0.684198
vt 0.907376 0.684198
vt 0.907376 0.958788
vt 0.488621 0.719923
vt 0.110493 0.665006
vt 0.485943 0.445341
vt 0.251325 0.963616
vt 0.101042 0.963616
vt 0.101042 0.743944
vt 0.296206 0.401036
vt 0.296206 0.126440
vt 0.446489 0.401036
vt 0.719519 0.403781
vt 0.569236 0.403781
vt 0.531667 0.684198
vt 0.719521 0.958788
vt 0.401608 0.963616
vt 0.251325 0.743944
vt 0.145921 0.401036
vt 0.108352 0.126440
vt 0.869804 0.403781
vt 0.558375 0.019760
vt 0.826737 0.067178
vt 0.558375 0.331768
vt 0.111352 0.445045
vt 0.108352 0.445341
vt 0.484061 0.126440
vt 0.531667 0.958788
vt 0.401608 0.743944
vt 0.826737 0.341767
vn -0.9962 -0.0774 0.0387
vn 0.0201 0.9982 -0.0573
vn 0.9922 -0.1212 -0.0273
vn -0.0201 -0.9982 0.0573
vn -0.0342 -0.0494 -0.9982
vn 0.0295 -0.1471 0.9887
vn 0.0296 -0.1471 0.9887
vn 0.9992 -0.0220 -0.0331
usemtl lacedonhead
s 1
f 1/1/1 2/2/1 3/3/1
f 4/4/2 5/5/2 6/6/2
f 5/7/3 7/8/3 6/9/3
f 8/10/4 1/11/4 9/12/4
f 10/13/5 11/14/5 12/15/5
f 8/16/6 4/4/6 1/17/6
f 2/18/2 4/4/2 11/19/2
f 7/20/4 8/10/4 10/21/4
f 9/22/5 3/23/5 11/14/5
f 7/24/6 5/5/7 4/4/6
f 11/25/8 13/26/8 4/27/8
f 9/28/1 1/1/1 3/3/1
f 11/19/2 4/4/2 6/6/2
f 7/8/3 12/29/3 6/9/3
f 10/21/4 8/10/4 9/12/4
f 11/14/5 6/30/5 12/15/5
f 4/4/6 2/18/6 1/17/6
f 3/31/2 2/18/2 11/19/2
f 12/32/4 7/20/4 10/21/4
f 10/13/5 9/22/5 11/14/5
f 8/16/6 7/24/6 4/4/6
f 4/27/8 13/26/8 14/33/8
