# Blender v2.80 (sub 75) OBJ File: ''
# www.blender.org
mtllib wildkinarm.mtl
o wildkinarm
v 0.109400 -0.029642 0.190389
v -0.133945 -0.099084 0.006034
v -0.007418 -0.092584 -0.099182
v 0.177123 -0.039921 0.040622
v -0.148980 0.101506 -0.049680
v -0.018819 0.059536 -0.141434
v 0.094365 0.170949 0.134677
v 0.165722 0.112196 -0.001628
v -0.161270 -0.111409 0.153533
v -0.241385 0.084073 0.185651
v 0.019168 0.177506 0.266913
v -0.029743 0.140915 0.500280
v 0.034349 -0.015471 0.474586
v 0.099283 -0.017976 0.234796
v -0.228695 0.047758 0.571004
v -0.112245 0.041961 0.758295
v 0.012186 0.107144 0.671956
v -0.164603 -0.108626 0.545311
v -0.045937 0.020291 0.808871
v 0.055299 0.069401 0.747123
v 0.044232 0.028950 0.659108
v -0.080199 -0.036231 0.745449
v -0.381069 -0.062279 0.575027
v -0.242408 -0.055996 0.775843
v -0.393761 -0.025964 0.221310
v -0.301354 -0.008529 -0.014017
v -0.039774 -0.036110 0.774117
v 0.061461 0.012999 0.712368
v 0.060821 0.010804 0.758360
v 0.027700 0.009018 0.740554
v 0.049055 0.039534 0.701203
v 0.081289 0.040051 0.720649
v 0.007401 0.053450 0.763994
v 0.028757 0.083966 0.724646
v 0.073930 0.046813 0.793401
v 0.094398 0.076061 0.755689
v 0.120160 0.025196 0.738299
v 0.104316 0.002555 0.767494
v 0.171248 -0.019478 0.745219
v 0.163325 -0.030797 0.759817
v 0.124415 0.023925 0.794977
v 0.140262 0.046568 0.765782
v 0.187701 -0.016581 0.756395
v 0.209608 -0.069602 0.741004
v 0.179778 -0.027901 0.770992
v 0.014450 -0.019915 0.784090
v -0.009690 -0.012672 0.756124
v 0.029743 0.015126 0.731468
v 0.052243 0.006729 0.760461
v -0.028439 0.033253 0.777918
v 0.010995 0.061050 0.753263
v 0.020448 0.009287 0.826608
v 0.058242 0.035929 0.802979
v 0.078593 -0.017959 0.787652
v 0.049335 -0.038585 0.805946
v 0.114429 -0.073540 0.804389
v 0.099800 -0.083854 0.813535
v 0.061729 -0.024599 0.841539
v 0.090986 -0.003973 0.823246
v 0.125952 -0.075370 0.820757
v 0.141656 -0.130628 0.805657
v 0.111323 -0.085682 0.829903
v -0.045059 -0.043339 0.790196
v -0.058604 -0.029906 0.757740
v -0.009910 -0.008089 0.748334
v 0.001608 -0.022430 0.781180
v -0.075560 0.017032 0.778833
v -0.026866 0.038850 0.769427
v -0.047257 -0.018743 0.835877
v -0.000589 0.002166 0.826863
v 0.014771 -0.053325 0.811438
v -0.021358 -0.069514 0.818417
v 0.035168 -0.115520 0.830658
v 0.017104 -0.123615 0.834147
v -0.017849 -0.060521 0.857441
v 0.018280 -0.044334 0.850462
v 0.041006 -0.120547 0.849222
v 0.051699 -0.176553 0.832576
v 0.022941 -0.128640 0.852713
vt 0.213865 0.491594
vt -0.014126 0.519315
vt 0.023806 0.647613
vt 0.192417 0.628827
vt 0.731138 0.688415
vt 0.601056 0.755542
vt 0.662224 0.864366
vt 0.760928 0.813505
vt 0.520701 0.698474
vt 0.347721 0.561929
vt 0.297078 0.673731
vt 0.431132 0.789886
vt 0.724386 0.569968
vt 0.578813 0.557368
vt -0.005599 0.813285
vt -0.005599 1.000463
vt 0.102637 1.000463
vt 0.102637 0.813285
vt 0.381880 0.457916
vt 0.390618 0.289296
vt 0.266891 0.265469
vt 0.227966 0.453563
vt 0.019437 0.402473
vt 0.574719 0.497551
vt 0.536788 0.206131
vt 0.414251 0.027430
vt 0.356260 0.123654
vt 0.728358 0.285193
vt 0.611979 0.275112
vt 0.136412 0.138546
vt 0.353282 0.012080
vt 0.341763 0.081499
vt 0.310980 0.108762
vt 0.278013 0.012080
vt 0.750800 0.077854
vt 0.692412 0.072814
vt 0.758820 0.025783
vt 0.823762 0.235413
vt 0.952057 0.207004
vt 0.869638 0.008371
vt 0.816017 0.520418
vt 0.944311 0.491780
vt 0.758820 0.708741
vt 0.887115 0.680332
vt 0.309590 0.014372
vt 0.322499 0.079208
vt 0.760928 0.040510
vt 0.721804 0.013934
vt 0.428877 0.881450
vt 0.451318 0.892905
vt 0.464426 0.855561
vt 0.441190 0.843877
vt 0.255944 0.806991
vt 0.247802 0.841815
vt 0.263888 0.877784
vt 0.268157 0.846756
vt 0.213245 0.845710
vt 0.211259 0.885574
vt 0.409215 0.835858
vt 0.402662 0.867704
vt 0.224566 0.804013
vt 0.482498 0.822112
vt 0.439402 0.804013
vt 0.358771 0.836088
vt 0.357778 0.852583
vt 0.187030 0.809053
vt 0.179484 0.841815
vt 0.404052 0.804013
vt 0.171341 0.872744
vt 0.351423 0.822341
vt 0.315080 0.843419
vt 0.127649 0.823716
vt 0.120897 0.838379
vt 0.134997 0.808595
vt 0.088128 0.804013
vt 0.428877 0.881450
vt 0.451318 0.892905
vt 0.464426 0.855561
vt 0.441190 0.843877
vt 0.255944 0.806991
vt 0.247802 0.841815
vt 0.263888 0.877784
vt 0.268157 0.846756
vt 0.213245 0.845710
vt 0.211259 0.885574
vt 0.409215 0.835858
vt 0.402662 0.867704
vt 0.224566 0.804013
vt 0.482498 0.822112
vt 0.439402 0.804013
vt 0.358771 0.836088
vt 0.357778 0.852583
vt 0.187030 0.809053
vt 0.179484 0.841815
vt 0.404052 0.804013
vt 0.171341 0.872744
vt 0.351423 0.822341
vt 0.315080 0.843419
vt 0.127649 0.823716
vt 0.120897 0.838379
vt 0.134997 0.808595
vt 0.088128 0.804013
vt 0.428877 0.881450
vt 0.451318 0.892905
vt 0.464426 0.855561
vt 0.441190 0.843877
vt 0.255944 0.806991
vt 0.247802 0.841815
vt 0.263888 0.877784
vt 0.268157 0.846756
vt 0.213245 0.845710
vt 0.211259 0.885574
vt 0.409215 0.835858
vt 0.402662 0.867704
vt 0.224566 0.804013
vt 0.482498 0.822112
vt 0.439402 0.804013
vt 0.358771 0.836088
vt 0.357778 0.852583
vt 0.187030 0.809053
vt 0.179484 0.841815
vt 0.404052 0.804013
vt 0.171341 0.872744
vt 0.351423 0.822341
vt 0.315080 0.843419
vt 0.127649 0.823716
vt 0.120897 0.838379
vt 0.134997 0.808595
vt 0.088128 0.804013
vn 0.1695 -0.9750 0.1436
vn -0.6106 -0.2541 -0.7500
vn 0.0272 0.9231 -0.3836
vn 0.9012 0.1774 0.3954
vn -0.9212 -0.2396 -0.3067
vn 0.6251 -0.1651 -0.7629
vn 0.9109 0.3334 0.2432
vn 0.2823 -0.9579 0.0518
vn -0.2624 0.9606 -0.0912
vn 0.8843 0.2364 0.4027
vn -0.3277 0.9124 0.2452
vn -0.9256 -0.3785 -0.0052
vn -0.3765 0.9223 0.0866
vn 0.3748 -0.9258 0.0483
vn -0.1075 0.8595 0.4996
vn 0.4898 -0.8603 0.1412
vn 0.9072 0.3954 -0.1438
vn -0.7841 -0.3994 0.4751
vn -0.5373 0.7664 0.3522
vn -0.5740 0.8128 0.0996
vn -0.6032 0.7772 -0.1793
vn 0.6077 -0.3674 0.7041
vn 0.2362 -0.9095 -0.3420
vn 0.8954 0.3511 -0.2739
vn -0.5952 -0.4128 0.6894
vn 0.3010 -0.8257 -0.4770
vn -0.8392 -0.1016 -0.5342
vn -0.1608 0.8203 0.5489
vn -0.0189 -0.7851 -0.6191
vn -0.3751 -0.5668 0.7335
vn 0.4130 0.5594 -0.7187
vn -0.4231 -0.5903 -0.6874
vn -0.2894 -0.6237 0.7261
vn 0.4931 0.4945 -0.7158
vn 0.2853 0.6762 0.6793
vn 0.4592 0.4174 -0.7842
vn 0.4836 0.4589 -0.7454
vn 0.6482 0.3897 0.6541
vn -0.2972 -0.6567 0.6932
vn 0.8058 0.1681 0.5678
vn -0.3177 -0.6928 0.6473
vn -0.6209 -0.4195 -0.6622
vn 0.2937 -0.8328 -0.4692
vn -0.5921 0.1353 -0.7944
vn -0.1927 0.7898 0.5823
vn 0.0606 -0.7091 -0.7025
vn -0.7137 -0.5215 0.4676
vn 0.7415 0.5045 -0.4423
vn -0.2476 -0.4222 -0.8720
vn -0.6433 -0.5957 0.4809
vn 0.8016 0.4229 -0.4226
vn 0.1407 0.5377 0.8313
vn 0.7810 0.3612 -0.5095
vn 0.7970 0.3929 -0.4587
vn 0.4280 0.1787 0.8860
vn -0.6446 -0.6233 0.4426
vn 0.5618 -0.0657 0.8246
vn -0.6536 -0.6501 0.3875
vn -0.4055 -0.2131 -0.8889
vn 0.2853 -0.8376 -0.4658
vn -0.3072 0.2955 -0.9046
vn -0.2295 0.7693 0.5963
vn 0.1522 -0.6577 -0.7378
vn -0.8904 -0.4144 0.1885
vn 0.9067 0.3909 -0.1587
vn -0.0453 -0.3085 -0.9502
vn -0.8392 -0.5009 0.2116
vn 0.9451 0.2986 -0.1330
vn -0.0259 0.4440 0.8956
vn 0.9414 0.2478 -0.2289
vn 0.9466 0.2725 -0.1724
vn 0.1740 0.0359 0.9841
vn -0.8336 -0.5251 0.1715
vn 0.2806 -0.2238 0.9334
vn -0.8302 -0.5459 0.1133
vn -0.1573 -0.0735 -0.9848
usemtl wildkinarm
s 1
f 1/1/1 2/2/1 3/3/1 4/4/1
f 2/5/2 5/6/2 6/7/2 3/8/2
f 5/9/3 7/10/3 8/11/3 6/12/3
f 7/10/4 1/1/4 4/4/4 8/11/4
f 2/5/5 9/13/5 10/14/5 5/6/5
f 6/15/6 8/16/6 4/17/6 3/18/6
f 11/19/7 12/20/7 13/21/7 14/22/7
f 1/1/8 14/22/8 9/23/8 2/2/8
f 5/9/9 10/24/9 11/19/9 7/10/9
f 7/10/10 11/19/10 14/22/10 1/1/10
f 15/25/11 16/26/11 17/27/11 12/20/11
f 9/13/12 18/28/12 15/29/12 10/14/12
f 10/24/13 15/25/13 12/20/13 11/19/13
f 14/22/14 13/21/14 18/30/14 9/23/14
f 16/26/15 19/31/15 20/32/15 17/27/15
f 13/21/16 21/33/16 22/34/16 18/30/16
f 12/20/17 17/27/17 21/33/17 13/21/17
f 18/28/18 22/35/18 16/36/18 15/29/18
f 16/37/19 15/38/19 23/39/19 24/40/19
f 10/41/20 25/42/20 23/39/20 15/38/20
f 5/43/21 26/44/21 25/42/21 10/41/21
f 27/45/22 28/46/22 20/32/22 19/31/22
f 21/33/23 28/46/23 27/45/23 22/34/23
f 17/27/24 20/32/24 28/46/24 21/33/24
f 22/35/25 27/47/25 19/48/25 16/36/25
f 29/49/26 30/50/26 31/51/26 32/52/26
f 30/53/27 33/54/27 34/55/27 31/56/27
f 33/54/28 35/57/28 36/58/28 34/55/28
f 32/52/29 37/59/29 38/60/29 29/49/29
f 30/53/30 29/61/30 35/57/30 33/54/30
f 34/62/31 36/63/31 32/52/31 31/51/31
f 37/59/32 39/64/32 40/65/32 38/60/32
f 29/61/33 38/66/33 41/67/33 35/57/33
f 36/63/34 42/68/34 37/59/34 32/52/34
f 35/57/35 41/67/35 42/69/35 36/58/35
f 43/70/36 44/71/36 39/64/36
f 42/68/37 43/70/37 39/64/37 37/59/37
f 41/67/38 45/72/38 43/73/38 42/69/38
f 38/66/39 40/74/39 45/72/39 41/67/39
f 45/72/40 44/75/40 43/73/40
f 40/74/41 44/75/41 45/72/41
f 39/64/42 44/71/42 40/65/42
f 46/76/43 47/77/43 48/78/43 49/79/43
f 47/80/44 50/81/44 51/82/44 48/83/44
f 50/81/45 52/84/45 53/85/45 51/82/45
f 49/79/46 54/86/46 55/87/46 46/76/46
f 47/80/47 46/88/47 52/84/47 50/81/47
f 51/89/48 53/90/48 49/79/48 48/78/48
f 54/86/49 56/91/49 57/92/49 55/87/49
f 46/88/50 55/93/50 58/94/50 52/84/50
f 53/90/51 59/95/51 54/86/51 49/79/51
f 52/84/52 58/94/52 59/96/52 53/85/52
f 60/97/53 61/98/53 56/91/53
f 59/95/54 60/97/54 56/91/54 54/86/54
f 58/94/55 62/99/55 60/100/55 59/96/55
f 55/93/56 57/101/56 62/99/56 58/94/56
f 62/99/57 61/102/57 60/100/57
f 57/101/58 61/102/58 62/99/58
f 56/91/59 61/98/59 57/92/59
f 63/103/60 64/104/60 65/105/60 66/106/60
f 64/107/61 67/108/61 68/109/61 65/110/61
f 67/108/62 69/111/62 70/112/62 68/109/62
f 66/106/63 71/113/63 72/114/63 63/103/63
f 64/107/64 63/115/64 69/111/64 67/108/64
f 68/116/65 70/117/65 66/106/65 65/105/65
f 71/113/66 73/118/66 74/119/66 72/114/66
f 63/115/67 72/120/67 75/121/67 69/111/67
f 70/117/68 76/122/68 71/113/68 66/106/68
f 69/111/69 75/121/69 76/123/69 70/112/69
f 77/124/70 78/125/70 73/118/70
f 76/122/71 77/124/71 73/118/71 71/113/71
f 75/121/72 79/126/72 77/127/72 76/123/72
f 72/120/73 74/128/73 79/126/73 75/121/73
f 79/126/74 78/129/74 77/127/74
f 74/128/75 78/129/75 79/126/75
f 73/118/76 78/125/76 74/119/76
